HIERARCHY
ROOT Hips
{
	OFFSET 0.00000 0.00000 0.00000
	CHANNELS 6 Xposition Yposition Zposition Zrotation Yrotation Xrotation 
	JOINT LHipJoint
	{
		OFFSET 0 0 0
		CHANNELS 3 Zrotation Yrotation Xrotation
		JOINT LeftHip
		{
			OFFSET 1.30186 -1.90722 0.65024
			CHANNELS 3 Zrotation Yrotation Xrotation
			JOINT LeftKnee
			{
				OFFSET 2.56413 -7.04489 0.00000
				CHANNELS 3 Zrotation Yrotation Xrotation
				JOINT LeftAnkle
				{
					OFFSET 2.79321 -7.67428 0.00000
					CHANNELS 3 Zrotation Yrotation Xrotation
					JOINT LeftToe
					{
						OFFSET 0.15723 -0.43198 2.08537
						CHANNELS 3 Zrotation Yrotation Xrotation
						End Site
						{
							OFFSET 0.00000 -0.00000 1.07411
						}
					}
				}
			}
		}
	}
	JOINT RHipJoint
	{
		OFFSET 0 0 0
		CHANNELS 3 Zrotation Yrotation Xrotation
		JOINT RightHip
		{
			OFFSET -1.28627 -1.90723 0.65024
			CHANNELS 3 Zrotation Yrotation Xrotation
			JOINT RightKnee
			{
				OFFSET -2.56567 -7.04913 0.00000
				CHANNELS 3 Zrotation Yrotation Xrotation
				JOINT RightAnkle
				{
					OFFSET -2.75597 -7.57198 0.00000
					CHANNELS 3 Zrotation Yrotation Xrotation
					JOINT RightToe
					{
						OFFSET -0.17500 -0.48081 2.22901
						CHANNELS 3 Zrotation Yrotation Xrotation
						End Site
						{
							OFFSET -0.00000 -0.00000 1.14762
						}
					}
				}
			}
		}
	}
	JOINT lowerback
	{
		OFFSET 0 0 0
		CHANNELS 3 Zrotation Yrotation Xrotation
		JOINT Chest
		{
			OFFSET -0.04522 2.07467 -0.16566
			CHANNELS 3 Zrotation Yrotation Xrotation
			JOINT Chest2
			{
				OFFSET -0.01178 2.08825 -0.05393
				CHANNELS 3 Zrotation Yrotation Xrotation
				JOINT lowerneck
				{
					OFFSET 0 0 0
					CHANNELS 3 Zrotation Yrotation Xrotation
					JOINT Neck
					{
						OFFSET -0.05182 1.80489 0.16014
						CHANNELS 3 Zrotation Yrotation Xrotation
						JOINT Head
						{
							OFFSET 0.14739 1.78840 -0.33342
							CHANNELS 3 Zrotation Yrotation Xrotation
							End Site
							{
								OFFSET 0.04364 1.83899 -0.13460
							}
						}
					}
				}
				JOINT LeftCollar
				{
					OFFSET 0 0 0
					CHANNELS 3 Zrotation Yrotation Xrotation
					JOINT LeftShoulder
					{
						OFFSET 3.01264 1.29090 -0.06579
CHANNELS 3 Zrotation Xrotation Yrotation
						JOINT LeftElbow
						{
OFFSET 0 -5.556800 0.000000
CHANNELS 3 Zrotation Xrotation Yrotation
							JOINT LeftWrist
							{
OFFSET 0 -3.639790 -0.000000
CHANNELS 3 Zrotation Xrotation Yrotation
								JOINT lhand
								{
									OFFSET 0 0 0
CHANNELS 3 Zrotation Xrotation Yrotation
									JOINT LFingers
									{
OFFSET 0 -0.569420 -0.000000
CHANNELS 3 Zrotation Xrotation Yrotation
										End Site
										{
OFFSET 0 -0.459080 -0.000000
										}
									}
								}
								JOINT LThumb
								{
OFFSET 0 0.000000 0.000000
CHANNELS 3 Zrotation Xrotation Yrotation
									End Site
									{
OFFSET 0 -0.466090 0.466090
									}
								}
							}
						}
					}
				}
				JOINT RightCollar
				{
					OFFSET 0 0 0
					CHANNELS 3 Zrotation Yrotation Xrotation
					JOINT RightShoulder
					{
						OFFSET -3.15796 1.37283 -0.36748
CHANNELS 3 Zrotation Xrotation Yrotation
						JOINT RightElbow
						{
OFFSET 0 -5.343390 0.000000
CHANNELS 3 Zrotation Xrotation Yrotation
							JOINT RightWrist
							{
OFFSET 0 -3.651010 -0.000000
CHANNELS 3 Zrotation Xrotation Yrotation
								JOINT rhand
								{
									OFFSET 0 0 0
CHANNELS 3 Zrotation Xrotation Yrotation
									JOINT RFingers
									{
OFFSET 0 -0.694250 -0.000000
CHANNELS 3 Zrotation Xrotation Yrotation
										End Site
										{
OFFSET 0 -0.559720 -0.000000
										}
									}
								}
								JOINT RThumb
								{
OFFSET 0 0.000000 0.000000
CHANNELS 3 Zrotation Xrotation Yrotation
									End Site
									{
OFFSET 0 -0.568270 0.568270
									}
								}
							}
						}
					}
				}
			}
		}
	}
}
MOTION
Frames: 5
Frame Time: 0.008333333333333333
16.621500 18.927100 18.487700 -179.537000 8.840200 -177.598000 0.000000 0.000000 0.000000 -23.717000 -5.244100 3.207100 1.045500 6.502400 18.249300 0.924000 -0.625000 -17.969800 0.214200 -2.979900 -8.222800 0.000000 0.000000 0.000000 6.225400 14.280800 -26.141400 -2.823600 -10.403800 30.294600 -0.001900 -4.616100 -6.655300 -0.008800 0.606200 -1.665800 -5.935900 0.042800 -1.622300 -2.096100 0.242500 -1.437100 1.172200 0.214500 -0.580000 -2.373500 -2.505600 -14.699200 -0.989800 -2.567500 15.452400 -0.194200 -1.408100 7.178200 0.000000 -0.000000 0.000000 36.814500 -58.074700 -36.027700 13.506800 -22.025200 2.640300 20.170800 11.772800 -15.504000 0.000000 0.000000 0.000000 -7.125000 0.000000 0.000000 -7.078300 46.321000 0.231900 0.000000 -0.000000 0.000000 -74.387900 -52.613000 -19.421800 -15.370400 -24.659600 -3.379000 6.594500 11.745200 -34.231400 0.000000 0.000000 0.000000 7.125000 0.000000 -0.000000 21.246100 -2.452100 23.807400
16.628434 18.928629 18.444887 -179.514598 8.646082 -177.573464 0.000000 0.000000 0.000000 -23.700821 -5.292532 3.505371 1.014812 6.407741 17.972613 0.913546 -0.498409 -17.906256 0.229846 -3.082809 -8.509657 0.000000 0.000000 0.000000 6.216581 14.420370 -26.143142 -2.742987 -10.264479 29.839761 0.005816 -4.822806 -6.685881 -0.006560 0.505069 -1.387904 -5.886402 0.014673 -1.685382 -2.073129 0.208008 -1.456622 1.168040 0.196685 -0.562363 -2.412153 -2.466023 -14.534063 -1.039725 -2.496524 15.422175 -0.194200 -1.378479 7.139369 0.000000 0.000000 0.000000 36.717672 -57.985091 -36.094978 13.521308 -22.046216 2.645776 16.567757 10.514286 -14.316605 0.000000 0.000000 0.000000 -7.125000 0.000000 0.000000 -10.007992 44.719695 -0.289541 0.000000 0.000000 0.000000 -74.458841 -52.508242 -18.732697 -15.454604 -24.775345 -3.414346 6.276316 10.992517 -34.116579 0.000000 0.000000 0.000000 7.125000 0.000000 0.000000 21.084910 -2.356339 23.564921
16.635368 18.930158 18.402073 -179.492195 8.451964 -177.548928 0.000000 0.000000 0.000000 -23.684641 -5.340963 3.803642 0.984125 6.313082 17.695927 0.903091 -0.371818 -17.842711 0.245492 -3.185717 -8.796513 0.000000 0.000000 0.000000 6.207763 14.559940 -26.144885 -2.662374 -10.125158 29.384923 0.013533 -5.029512 -6.716462 -0.004320 0.403939 -1.110009 -5.836903 -0.013455 -1.748464 -2.050157 0.173515 -1.476144 1.163879 0.178870 -0.544725 -2.450806 -2.426445 -14.368926 -1.089650 -2.425547 15.391949 -0.194200 -1.348858 7.100539 0.000000 0.000000 0.000000 36.620844 -57.895481 -36.162256 13.535816 -22.067231 2.651252 12.964715 9.255773 -13.129210 0.000000 0.000000 0.000000 -7.125000 0.000000 0.000000 -12.937685 43.118390 -0.810982 0.000000 0.000000 0.000000 -74.529781 -52.403485 -18.043594 -15.538809 -24.891091 -3.449692 5.958131 10.239834 -34.001758 0.000000 0.000000 0.000000 7.125000 0.000000 0.000000 20.923720 -2.260578 23.322443
16.642516 18.931140 18.358826 -179.476871 8.262180 -177.533875 0.000000 0.000000 0.000000 -23.678445 -5.386437 4.111155 0.954218 6.220127 17.424475 0.893485 -0.240446 -17.789698 0.263395 -3.299737 -9.114642 0.000000 0.000000 0.000000 6.192847 14.705594 -26.132864 -2.582770 -9.986244 28.932649 0.021229 -5.237754 -6.755671 -0.002353 0.293299 -0.805976 -5.794710 -0.039979 -1.801610 -2.028402 0.140772 -1.481943 1.162550 0.161395 -0.518687 -2.507282 -2.383809 -14.266319 -1.116738 -2.349129 15.382051 -0.184263 -1.316212 7.079611 0.000000 0.000000 0.000000 36.542394 -57.827528 -36.207665 13.548281 -22.085282 2.655954 10.103068 8.237921 -12.131438 0.000000 0.000000 0.000000 -7.125000 0.000000 0.000000 -15.252332 41.791189 -1.238660 0.000000 0.000000 0.000000 -74.622719 -52.323121 -17.441877 -15.618152 -25.000078 -3.483041 5.665062 9.525916 -33.893074 0.000000 0.000000 0.000000 7.125000 0.000000 0.000000 20.775157 -2.169752 23.098328
16.650588 18.929753 18.313701 -179.492162 8.091140 -177.559833 0.000000 0.000000 0.000000 -23.715427 -5.419116 4.458641 0.927691 6.134535 17.175667 0.887546 -0.088394 -17.782230 0.291060 -3.461817 -9.568023 0.000000 0.000000 0.000000 6.151563 14.877558 -26.061319 -2.507526 -9.849092 28.491465 0.028839 -5.452639 -6.832194 -0.001571 0.141532 -0.388902 -5.784113 -0.059573 -1.811780 -2.011902 0.115596 -1.428391 1.173467 0.145393 -0.456316 -2.640842 -2.327946 -14.434159 -1.045050 -2.249172 15.460068 -0.131351 -1.270483 7.136115 0.000000 0.000000 0.000000 36.543425 -57.853237 -36.158486 13.551908 -22.090509 2.657305 10.447957 8.260927 -11.953784 0.000000 0.000000 0.000000 -7.125000 0.000000 0.000000 -14.906909 41.649485 -1.260814 0.000000 0.000000 0.000000 -74.810792 -52.348262 -17.218102 -15.676469 -25.079838 -3.507755 5.480616 8.979654 -33.810932 0.000000 0.000000 0.000000 7.125000 0.000000 0.000000 20.681210 -2.100269 22.953637
